<svg id="Layer_1" xmlns="http://www.w3.org/2000/svg" viewBox="0 0 37 22" width="37" height="22">
  <polygon fill="#fff" classname="st0" points="7.5,7.6 9.7,6 7,6 6.2,3.5 5.3,6 2.6,6 4.8,7.6 4,10.2 6.2,8.6 8.3,10.2"></polygon>
  <polygon fill="#fff" classname="st0" points="12.7,3.8 13.6,3.6 12.7,3.2 12.8,2.3 12.2,3 11.4,2.7 11.9,3.4 11.3,4.1 12.1,3.9 12.6,4.7"></polygon>
  <polygon fill="#fff" classname="st0" points="15,6.4 15.9,6.5 15.3,5.9 15.7,5.1 14.9,5.5 14.3,4.8 14.4,5.7 13.6,6.1 14.5,6.3 14.6,7.1"></polygon>
  <polygon fill="#fff" classname="st0" points="15.3,9.8 16,9.2 15.1,9.2 14.8,8.4 14.5,9.3 13.6,9.3 14.4,9.8 14.1,10.7 14.8,10.1 15.6,10.6"></polygon>
  <polygon fill="#fff" classname="st0" points="12.7,12.4 13.6,12.2 12.7,11.8 12.8,10.9 12.2,11.6 11.4,11.3 11.9,12.1 11.3,12.8 12.2,12.5 12.7,13.3"></polygon>
  <path fill="#fff" classname="st0" d="M0,0v1v11v1v8v0.7V22h37v-0.3V21V1V0.1V0H0z M36,21H1v-5.7V13v-1v-0.5v-1.3v-2v-1v-2V4.3V3V1.8V1h1.5h1.8h3.1h1	h2h0.9h3.2h1.9H18h1h0.9H36V21z"></path>
</svg>
