<svg width="37" height="22" xmlns="http://www.w3.org/2000/svg">
 <style type="text/css">.st0{fill:#CCCCCC;}</style>

 <g>
  <title>background</title>
  <rect fill="none" id="canvas_background" height="402" width="582" y="-1" x="-1"/>
 </g>
 <g>
  <title>Layer 1</title>
  <path id="svg_1" d="m0,0l0,1l0,11l0,1l0,8l0,0.7l0,0.3l37,0l0,-0.3l0,-0.7l0,-20l0,-0.9l0,-0.1l-37,0zm36,21l-35,0l0,-5.7l0,-2.3l0,-1l0,-0.5l0,-1.3l0,-2l0,-1l0,-2l0,-0.9l0,-1.3l0,-1.2l0,-0.8l1.5,0l1.8,0l3.1,0l1,0l2,0l0.9,0l3.2,0l1.9,0l1.6,0l1,0l0.9,0l16.1,0l0,20z" class="st0"/>
  <g id="svg_2">
   <polygon id="svg_3" points="17.8,4.8 18.5,4.3 19.2,4.8 18.9,3.9 19.7,3.4 18.8,3.4 18.5,2.6 18.2,3.4 17.3,3.4 18.1,3.9  " class="st0"/>
   <polygon id="svg_4" points="14.1,5.8 14.8,5.2 15.6,5.8 15.3,4.9 16,4.4 15.1,4.4 14.8,3.6 14.6,4.4 13.7,4.4 14.4,4.9  " class="st0"/>
   <polygon id="svg_5" points="12.2,6.2 11.9,7.1 11,7.1 11.7,7.6 11.5,8.4 12.2,7.9 12.9,8.4 12.6,7.6 13.3,7.1 12.4,7.1  " class="st0"/>
   <polygon id="svg_6" points="11.2,11.6 11.9,12.1 11.6,11.3 12.3,10.7 11.5,10.7 11.2,9.9 10.9,10.7 10,10.7 10.7,11.3 10.5,12.1     " class="st0"/>
   <polygon id="svg_7" points="12.4,14.4 12.2,13.6 11.9,14.4 11,14.4 11.7,14.9 11.5,15.8 12.2,15.2 12.9,15.8 12.6,14.9 13.3,14.4     " class="st0"/>
   <polygon id="svg_8" points="15.1,17.1 14.8,16.3 14.6,17.1 13.7,17.1 14.4,17.6 14.1,18.4 14.8,17.9 15.6,18.4 15.3,17.6 16,17.1     " class="st0"/>
   <polygon id="svg_9" points="18.8,18.1 18.5,17.2 18.2,18.1 17.3,18.1 18.1,18.6 17.8,19.4 18.5,18.9 19.2,19.4 18.9,18.6    19.7,18.1  " class="st0"/>
   <polygon id="svg_10" points="22.4,17.1 22.2,16.3 21.9,17.1 21,17.1 21.7,17.6 21.5,18.4 22.2,17.9 22.9,18.4 22.6,17.6 23.3,17.1     " class="st0"/>
   <polygon id="svg_11" points="25.1,14.4 24.8,13.6 24.6,14.4 23.7,14.4 24.4,14.9 24.1,15.8 24.8,15.2 25.6,15.8 25.3,14.9 26,14.4     " class="st0"/>
   <polygon id="svg_12" points="27,10.7 26.1,10.7 25.8,9.9 25.5,10.7 24.7,10.7 25.4,11.3 25.1,12.1 25.8,11.6 26.5,12.1 26.3,11.3     " class="st0"/>
   <polygon id="svg_13" points="24.1,8.4 24.8,7.9 25.6,8.4 25.3,7.6 26,7.1 25.1,7.1 24.8,6.2 24.6,7.1 23.7,7.1 24.4,7.6  " class="st0"/>
   <polygon id="svg_14" points="22.2,3.6 21.9,4.4 21,4.4 21.7,4.9 21.5,5.8 22.2,5.2 22.9,5.8 22.6,4.9 23.3,4.4 22.4,4.4  " class="st0"/>
  </g>
 </g>
</svg>