<svg viewBox="0 0 80 123" version="1.1" xmlns="http://www.w3.org/2000/svg" xmlns:xlink="http://www.w3.org/1999/xlink">
  <path fill="#fff" d="M10.5559236,4.19161728 C10.3740127,3.90259259 10.1482803,3.649 9.87617834,3.43033333 C9.60407643,3.21166667 9.29732484,3.04159259 8.9543949,2.91909877 C8.61095541,2.79711111 8.2522293,2.7358642 7.87719745,2.7358642 C7.19133758,2.7358642 6.6089172,2.86797531 6.12993631,3.13118519 C5.65146497,3.39540741 5.26318471,3.74820988 4.9656051,4.19161728 C4.66751592,4.63502469 4.45146497,5.13967901 4.31541401,5.70507407 C4.17936306,6.27097531 4.11159236,6.85611111 4.11159236,7.45997531 C4.11159236,8.03802469 4.17936306,8.60088889 4.31541401,9.14654321 C4.45146497,9.69320988 4.66751592,10.1852099 4.9656051,10.622037 C5.26318471,11.0588642 5.65146497,11.4091358 6.12993631,11.6728519 C6.6089172,11.9360617 7.19133758,12.0676667 7.87719745,12.0676667 C8.80866242,12.0676667 9.53681529,11.7852222 10.0606369,11.2198272 C10.5849682,10.6539259 10.9049682,9.90883951 11.0211465,8.98355556 L13.971465,8.98355556 C13.8940127,9.84404938 13.693758,10.622037 13.3701911,11.316 C13.0466242,12.009963 12.6191083,12.601679 12.089172,13.0896296 C11.5582166,13.5780864 10.9370701,13.9511358 10.2252229,14.2082716 C9.51388535,14.4649012 8.73121019,14.5939753 7.87719745,14.5939753 C6.81579618,14.5939753 5.86140127,14.4107407 5.01401274,14.0442716 C4.1666242,13.6783086 3.45121019,13.1736543 2.86929936,12.5303086 C2.28738854,11.8879753 1.84,11.1327654 1.53019108,10.2651852 C1.21936306,9.39760494 1.06394904,8.4627037 1.06394904,7.45997531 C1.06394904,6.4314321 1.21936306,5.47679012 1.53019108,4.59655556 C1.84,3.71581481 2.28738854,2.94795062 2.86929936,2.29296296 C3.45121019,1.63696296 4.1666242,1.12319753 5.01401274,0.750148148 C5.86140127,0.377604938 6.81579618,0.19082716 7.87719745,0.19082716 C8.64050955,0.19082716 9.36203822,0.300666667 10.0412739,0.51882716 C10.7205096,0.737493827 11.3284076,1.05537037 11.8654777,1.47346914 C12.4025478,1.89106173 12.8458599,2.40837037 13.1949045,3.02539506 C13.5449682,3.64191358 13.764586,4.34954321 13.8547771,5.14625926 L10.9049682,5.14625926 C10.8529936,4.79902469 10.7368153,4.48114815 10.5559236,4.19161728" id="Fill-1"></path>
  <path fill="#fff" d="M21.4349045,6.65009877 C21.1047134,6.29071605 20.6028025,6.11001235 19.9301911,6.11001235 C19.4904459,6.11001235 19.124586,6.18441975 18.8336306,6.33171605 C18.5426752,6.47951852 18.3092994,6.66275309 18.1350318,6.88091358 C17.9602548,7.10008642 17.8369427,7.33140741 17.7661146,7.57588889 C17.6947771,7.8198642 17.6524841,8.03802469 17.6402548,8.23087654 L22.1238217,8.23087654 C21.9943949,7.53640741 21.764586,7.00998765 21.4349045,6.65009877 Z M18.3194904,11.8945556 C18.7327389,12.2924074 19.3284076,12.4918395 20.1049682,12.4918395 C20.6614013,12.4918395 21.1398726,12.3536543 21.5414013,12.077284 C21.9424204,11.8014198 22.1880255,11.5088519 22.2787261,11.2000864 L24.7052229,11.2000864 C24.3169427,12.3956667 23.7217834,13.2505926 22.9192357,13.7648642 C22.1166879,14.2786296 21.1464968,14.5357654 20.0076433,14.5357654 C19.2183439,14.5357654 18.5070064,14.4107407 17.873121,14.1601852 C17.2392357,13.9091235 16.7016561,13.5527778 16.2619108,13.0896296 C15.8221656,12.6269877 15.4817834,12.0747531 15.2428025,11.4319136 C15.0033121,10.7895802 14.8840764,10.0819506 14.8840764,9.31104938 C14.8840764,8.56596296 15.0063694,7.87098765 15.2524841,7.22814815 C15.4980892,6.58530864 15.8476433,6.03003704 16.3006369,5.56081481 C16.7536306,5.09159259 17.293758,4.72208642 17.9215287,4.4522963 C18.5487898,4.182 19.2443312,4.04735802 20.0076433,4.04735802 C20.8616561,4.04735802 21.6056051,4.21135802 22.24,4.53834568 C22.8738854,4.86685185 23.3951592,5.30671605 23.802293,5.85996296 C24.2099363,6.4127037 24.5044586,7.04238272 24.6858599,7.74950617 C24.8667516,8.45612346 24.9309554,9.1951358 24.8794904,9.96654321 L17.6402548,9.96654321 C17.6789809,10.8528519 17.9052229,11.4961975 18.3194904,11.8945556 L18.3194904,11.8945556 Z" id="Fill-2"></path>
  <path fill="#fff" d="M28.7419108,4.31714815 L28.7419108,6.16822222 L28.7806369,6.16822222 C28.9100637,5.85996296 29.0848408,5.57346914 29.3049682,5.30975309 C29.524586,5.04654321 29.7773248,4.82180247 30.0616561,4.63502469 C30.3464968,4.44925926 30.6507006,4.30398765 30.9742675,4.20123457 C31.2978344,4.09848148 31.6341401,4.04735802 31.9836943,4.04735802 C32.164586,4.04735802 32.3648408,4.07975309 32.5854777,4.14353086 L32.5854777,6.6885679 C32.4550318,6.66275309 32.3006369,6.64048148 32.1187261,6.62124691 C31.9383439,6.60201235 31.7630573,6.59239506 31.595414,6.59239506 C31.0909554,6.59239506 30.663949,6.67641975 30.3143949,6.84295062 C29.9648408,7.00998765 29.6830573,7.23776543 29.4700637,7.5272963 C29.256051,7.81682716 29.1042038,8.15393827 29.0135032,8.53964198 C28.9233121,8.92534568 28.8779618,9.34293827 28.8779618,9.79241975 L28.8779618,14.2852099 L26.1217834,14.2852099 L26.1217834,4.31714815 L28.7419108,4.31714815" id="Fill-3"></path>
  <path fill="#fff" d="M39.9612739,4.31714815 L39.9612739,6.14848148 L37.9419108,6.14848148 L37.9419108,11.0841728 C37.9419108,11.5478272 38.0203822,11.8555802 38.1757962,12.009963 C38.3312102,12.1643457 38.6415287,12.2417901 39.106242,12.2417901 C39.2616561,12.2417901 39.4109554,12.2352099 39.553121,12.2220494 C39.6947771,12.2099012 39.830828,12.1906667 39.9612739,12.1643457 L39.9612739,14.2852099 C39.7284076,14.323679 39.468535,14.3494938 39.1836943,14.3621481 C38.9003822,14.3753086 38.6216561,14.3818889 38.3500637,14.3818889 C37.9230573,14.3818889 37.5179618,14.3525309 37.1363057,14.2948272 C36.7546497,14.2371235 36.4193631,14.1252593 36.1273885,13.957716 C35.8364331,13.7901728 35.6066242,13.5527778 35.4379618,13.2435062 C35.2698089,12.9352469 35.1867516,12.5303086 35.1867516,12.0297037 L35.1867516,6.14848148 L33.5169427,6.14848148 L33.5169427,4.31714815 L35.1867516,4.31714815 L35.1867516,1.3287037 L37.9419108,1.3287037 L37.9419108,4.31714815 L39.9612739,4.31714815" id="Fill-4"></path>
  <path fill="#fff" d="M41.3579618,14.2852099 L44.1141401,14.2852099 L44.1141401,4.31714815 L41.3579618,4.31714815 L41.3579618,14.2852099 Z M41.3579618,2.77483951 L44.1141401,2.77483951 L44.1141401,0.51882716 L41.3579618,0.51882716 L41.3579618,2.77483951 Z" id="Fill-5"></path>
  <path fill="#fff" d="M45.2397452,6.14848148 L45.2397452,4.31714815 L46.8896815,4.31714815 L46.8896815,3.54574074 C46.8896815,2.65892593 47.1673885,1.93307407 47.7238217,1.36717284 C48.2802548,0.801777778 49.1220382,0.51882716 50.2476433,0.51882716 C50.4927389,0.51882716 50.7398726,0.528444444 50.9859873,0.547679012 C51.2300637,0.56691358 51.4700637,0.583617284 51.7029299,0.595765432 L51.7029299,2.63969136 C51.3793631,2.60071605 51.0425478,2.58148148 50.6935032,2.58148148 C50.3189809,2.58148148 50.0499363,2.66854321 49.8884076,2.84216049 C49.726879,3.0152716 49.6463694,3.30834568 49.6463694,3.71935802 L49.6463694,4.31714815 L51.5475159,4.31714815 L51.5475159,6.14848148 L49.6463694,6.14848148 L49.6463694,14.2852099 L46.8896815,14.2852099 L46.8896815,6.14848148 L45.2397452,6.14848148" id="Fill-6"></path>
  <path fill="#fff" d="M53.2168153,14.2852099 L55.9740127,14.2852099 L55.9740127,4.31714815 L53.2168153,4.31714815 L53.2168153,14.2852099 Z M53.2168153,2.77483951 L55.9740127,2.77483951 L55.9740127,0.51882716 L53.2168153,0.51882716 L53.2168153,2.77483951 Z" id="Fill-7"></path>
  <path fill="#fff" d="M63.435414,6.65009877 C63.106242,6.29071605 62.6033121,6.11001235 61.9317197,6.11001235 C61.491465,6.11001235 61.1266242,6.18441975 60.8351592,6.33171605 C60.5431847,6.47951852 60.310828,6.66275309 60.1365605,6.88091358 C59.9617834,7.10008642 59.8389809,7.33140741 59.7671338,7.57588889 C59.6963057,7.8198642 59.6545223,8.03802469 59.6417834,8.23087654 L64.1248408,8.23087654 C63.9964331,7.53640741 63.7666242,7.00998765 63.435414,6.65009877 Z M60.3205096,11.8945556 C60.7347771,12.2924074 61.3304459,12.4918395 62.1059873,12.4918395 C62.6629299,12.4918395 63.1414013,12.3536543 63.5424204,12.077284 C63.943949,11.8014198 64.1900637,11.5088519 64.2797452,11.2000864 L66.7057325,11.2000864 C66.3184713,12.3956667 65.722293,13.2505926 64.9212739,13.7648642 C64.1171975,14.2786296 63.1480255,14.5357654 62.009172,14.5357654 C61.2193631,14.5357654 60.5080255,14.4107407 59.8741401,14.1601852 C59.2402548,13.9091235 58.7026752,13.5527778 58.2634395,13.0896296 C57.8226752,12.6269877 57.4833121,12.0747531 57.2443312,11.4319136 C57.0053503,10.7895802 56.8850955,10.0819506 56.8850955,9.31104938 C56.8850955,8.56596296 57.0084076,7.87098765 57.2540127,7.22814815 C57.5001274,6.58530864 57.8481529,6.03003704 58.3021656,5.56081481 C58.7551592,5.09159259 59.2947771,4.72208642 59.9225478,4.4522963 C60.5503185,4.182 61.2453503,4.04735802 62.009172,4.04735802 C62.8631847,4.04735802 63.6076433,4.21135802 64.2415287,4.53834568 C64.875414,4.86685185 65.3961783,5.30671605 65.8043312,5.85996296 C66.211465,6.4127037 66.5059873,7.04238272 66.6863694,7.74950617 C66.8682803,8.45612346 66.9319745,9.1951358 66.8810191,9.96654321 L59.6417834,9.96654321 C59.6805096,10.8528519 59.906242,11.4961975 60.3205096,11.8945556 L60.3205096,11.8945556 Z" id="Fill-8"></path>
  <path fill="#fff" d="M75.1296815,8.08611111 C75.0527389,7.70749383 74.9192357,7.37291358 74.7322293,7.08388889 C74.5452229,6.79435802 74.3021656,6.56050617 74.0040764,6.37980247 C73.7064968,6.20011111 73.3319745,6.11001235 72.8789809,6.11001235 C72.4264968,6.11001235 72.0443312,6.20011111 71.7335032,6.37980247 C71.4231847,6.56050617 71.1735032,6.79790123 70.9859873,7.09350617 C70.7979618,7.38961728 70.6629299,7.7267284 70.5793631,8.10585185 C70.4942675,8.48497531 70.4535032,8.8802963 70.4535032,9.29181481 C70.4535032,9.67650617 70.4978344,10.062716 70.5875159,10.4479136 C70.6787261,10.8341235 70.8249682,11.178321 71.0252229,11.48 C71.2259873,11.7821852 71.477707,12.0261605 71.7824204,12.2124321 C72.0861146,12.3992099 72.4524841,12.4918395 72.8789809,12.4918395 C73.3319745,12.4918395 73.7100637,12.4027531 74.0147771,12.2220494 C74.3184713,12.042358 74.5610191,11.8014198 74.7424204,11.4987284 C74.922293,11.1970494 75.0527389,10.8528519 75.1296815,10.4676543 C75.2081529,10.0819506 75.2473885,9.68359259 75.2473885,9.27258025 C75.2473885,8.8615679 75.2081529,8.46574074 75.1296815,8.08611111 Z M75.2473885,13.0126914 C74.922293,13.5527778 74.4988535,13.9415185 73.9750318,14.1789136 C73.4512102,14.4168148 72.8596178,14.5357654 72.1992357,14.5357654 C71.4481529,14.5357654 70.7892994,14.3915062 70.2201274,14.1019753 C69.6499363,13.8129506 69.1811465,13.4211728 68.8122293,12.9261358 C68.4428025,12.4316049 68.164586,11.8631728 67.9775796,11.2198272 C67.7900637,10.5774938 67.6968153,9.90883951 67.6968153,9.21437037 C67.6968153,8.54622222 67.7900637,7.90034568 67.9775796,7.27674074 C68.164586,6.6531358 68.4428025,6.10393827 68.8122293,5.62762963 C69.1811465,5.15283951 69.6438217,4.77017284 70.2002548,4.48114815 C70.7561783,4.19161728 71.4033121,4.04735802 72.1411465,4.04735802 C72.7368153,4.04735802 73.3024204,4.17238272 73.8384713,4.42293827 C74.3765605,4.674 74.8,5.04350617 75.110828,5.53196296 L75.1490446,5.53196296 L75.1490446,0.51882716 L77.9057325,0.51882716 L77.9057325,14.2852099 L75.2856051,14.2852099 L75.2856051,13.0126914 L75.2473885,13.0126914 L75.2473885,13.0126914 Z" id="Fill-9"></path>
  <path fill="#fff" d="M28.8652229,75.7401605 L43.6346497,75.7401605 C48.7194904,75.7401605 51.9454777,72.6590864 51.9454777,67.8524691 C51.9454777,62.1225926 47.293758,60.5210617 42.3286624,60.5210617 L28.8652229,60.5210617 L28.8652229,75.7401605 Z M28.8652229,55.5904321 L40.6573248,55.5904321 C47.355414,55.5904321 50.0856051,53.1881358 50.0856051,48.5667778 C50.0856051,42.4648642 45.7442038,41.6043704 40.6573248,41.6043704 L28.8652229,41.6043704 L28.8652229,55.5904321 Z M22.9757962,36.6747531 L39.0420382,36.6747531 C42.950828,36.6747531 48.0998726,36.6747531 50.7663694,38.2772963 C53.6815287,40.0018272 55.9755414,43.1446543 55.9755414,47.4587654 C55.9755414,52.140358 53.496051,55.6531975 49.4017834,57.3159753 L49.4017834,57.4394815 C54.8626752,58.5485062 57.8374522,62.6161111 57.8374522,68.0392469 C57.8374522,74.5066173 53.1842038,80.6697778 44.3775796,80.6697778 L22.9757962,80.6697778 L22.9757962,36.6747531 L22.9757962,36.6747531 Z" id="Fill-10"></path>
  <path fill="#fff" d="M39.2142675,20.1249259 C17.783949,20.1249259 0.409681529,37.3833951 0.409681529,58.6720123 C0.409681529,79.9601235 17.783949,97.2185926 39.2142675,97.2185926 C60.6476433,97.2185926 78.0214013,79.9601235 78.0214013,58.6720123 C78.0214013,37.3833951 60.6476433,20.1249259 39.2142675,20.1249259 Z M72.903949,58.6907407 C72.903949,77.1731358 57.8226752,92.1558519 39.2142675,92.1558519 C20.6089172,92.1558519 5.52713376,77.1731358 5.52713376,58.6907407 C5.52713376,40.2103704 20.6089172,25.2286667 39.2142675,25.2286667 C57.8226752,25.2286667 72.903949,40.2103704 72.903949,58.6907407 L72.903949,58.6907407 Z" id="Fill-11"></path>
  <path fill="#fff" d="M7.57350318,105.545642 C7.43388535,104.576827 6.49987261,103.839333 5.42828025,103.839333 C3.49197452,103.839333 2.76280255,105.478321 2.76280255,107.18463 C2.76280255,108.806914 3.49197452,110.444889 5.42828025,110.444889 C6.74598726,110.444889 7.49197452,109.544407 7.65350318,108.261259 L9.74522293,108.261259 C9.52356688,110.691395 7.8343949,112.246358 5.42828025,112.246358 C2.3933758,112.246358 0.607388535,109.994395 0.607388535,107.18463 C0.607388535,104.289827 2.3933758,102.037864 5.42828025,102.037864 C7.58624204,102.037864 9.39821656,103.294185 9.66063694,105.545642 L7.57350318,105.545642" id="Fill-12"></path>
  <path fill="#fff" d="M14.2476433,110.744543 C15.5801274,110.744543 15.9780892,109.611728 15.9780892,108.493593 C15.9780892,107.36179 15.5801274,106.228469 14.2476433,106.228469 C12.9294268,106.228469 12.5284076,107.36179 12.5284076,108.493593 C12.5284076,109.611728 12.9294268,110.744543 14.2476433,110.744543 Z M14.2476433,104.769173 C16.4876433,104.769173 17.9301911,106.240617 17.9301911,108.493593 C17.9301911,110.731889 16.4876433,112.205864 14.2476433,112.205864 C12.0219108,112.205864 10.5803822,110.731889 10.5803822,108.493593 C10.5803822,106.240617 12.0219108,104.769173 14.2476433,104.769173 L14.2476433,104.769173 Z" id="Fill-13"></path>
  <path fill="#fff" d="M19.0563057,104.959494 L20.9090446,104.959494 L20.9090446,106.268457 L20.9370701,106.268457 C21.2932484,105.382148 22.2557962,104.769173 23.2056051,104.769173 C23.3426752,104.769173 23.506242,104.794988 23.6321019,104.835481 L23.6321019,106.636951 C23.4501911,106.596457 23.1638217,106.570642 22.9309554,106.570642 C21.5001274,106.570642 21.0043312,107.594123 21.0043312,108.834753 L21.0043312,112.015037 L19.0563057,112.015037 L19.0563057,104.959494" id="Fill-14"></path>
  <path fill="#fff" d="M29.9480255,108.508272 C29.9480255,107.386593 29.4945223,106.228469 28.2450955,106.228469 C26.9671338,106.228469 26.5559236,107.36179 26.5559236,108.508272 C26.5559236,109.653235 26.9951592,110.744543 28.2593631,110.744543 C29.5378344,110.744543 29.9480255,109.653235 29.9480255,108.508272 Z M24.673121,104.959494 L26.5294268,104.959494 L26.5294268,105.858963 L26.5559236,105.858963 C27.0226752,105.108815 27.7915924,104.769173 28.6700637,104.769173 C30.8978344,104.769173 31.8985987,106.555963 31.8985987,108.560914 C31.8985987,110.444889 30.8565605,112.205864 28.7801274,112.205864 C27.929172,112.205864 27.1194904,111.836864 26.6522293,111.140877 L26.6231847,111.140877 L26.6231847,114.498321 L24.673121,114.498321 L24.673121,104.959494 L24.673121,104.959494 Z" id="Fill-15"></path>
  <path fill="#fff" d="M36.513121,110.744543 C37.8461146,110.744543 38.2456051,109.611728 38.2456051,108.493593 C38.2456051,107.36179 37.8461146,106.228469 36.513121,106.228469 C35.1959236,106.228469 34.7964331,107.36179 34.7964331,108.493593 C34.7964331,109.611728 35.1959236,110.744543 36.513121,110.744543 Z M36.513121,104.769173 C38.7536306,104.769173 40.1987261,106.240617 40.1987261,108.493593 C40.1987261,110.731889 38.7536306,112.205864 36.513121,112.205864 C34.2884076,112.205864 32.846879,110.731889 32.846879,108.493593 C32.846879,106.240617 34.2884076,104.769173 36.513121,104.769173 L36.513121,104.769173 Z" id="Fill-16"></path>
  <path fill="#fff" d="M41.4619108,104.959494 L43.3166879,104.959494 L43.3166879,106.268457 L43.3457325,106.268457 C43.7014013,105.382148 44.6629299,104.769173 45.6112102,104.769173 C45.7477707,104.769173 45.9133758,104.794988 46.0371975,104.835481 L46.0371975,106.636951 C45.8588535,106.596457 45.5694268,106.570642 45.3365605,106.570642 C43.9077707,106.570642 43.4124841,107.594123 43.4124841,108.834753 L43.4124841,112.015037 L41.4619108,112.015037 L41.4619108,104.959494" id="Fill-17"></path>
  <path fill="#fff" d="M51.2300637,108.560914 C50.8978344,108.849432 50.2124841,108.860568 49.6071338,108.970914 C49.0028025,109.091889 48.4535032,109.29942 48.4535032,110.008062 C48.4535032,110.731889 49.0165605,110.908037 49.6499363,110.908037 C51.1724841,110.908037 51.2300637,109.708407 51.2300637,109.284741 L51.2300637,108.560914 Z M46.7210191,107.129457 C46.8326115,105.313309 48.466242,104.769173 50.0606369,104.769173 C51.4746497,104.769173 53.1796178,105.081988 53.1796178,106.772605 L53.1796178,110.444889 C53.1796178,111.087222 53.246879,111.727531 53.4287898,112.015037 L51.4481529,112.015037 C51.3814013,111.794852 51.3238217,111.564037 51.308535,111.331198 C50.6924841,111.974543 49.7864968,112.205864 48.9207643,112.205864 C47.5735032,112.205864 46.5034395,111.537716 46.5034395,110.089049 C46.5034395,108.493593 47.7141401,108.111938 48.9207643,107.947938 C50.1166879,107.769765 51.2300637,107.811272 51.2300637,107.018605 C51.2300637,106.187975 50.6496815,106.064469 49.9653503,106.064469 C49.2229299,106.064469 48.7429299,106.364123 48.6726115,107.129457 L46.7210191,107.129457 L46.7210191,107.129457 Z" id="Fill-18"></path>
  <path fill="#fff" d="M57.162293,104.959494 L58.5915924,104.959494 L58.5915924,106.255296 L57.162293,106.255296 L57.162293,109.746877 C57.162293,110.404395 57.3278981,110.567889 57.9857325,110.567889 C58.1926115,110.567889 58.3852229,110.553716 58.5915924,110.514235 L58.5915924,112.028704 C58.2598726,112.08337 57.8338854,112.097037 57.449172,112.097037 C56.2573248,112.097037 55.2127389,111.822185 55.2127389,110.417556 L55.2127389,106.255296 L54.0295541,106.255296 L54.0295541,104.959494 L55.2127389,104.959494 L55.2127389,102.842679 L57.162293,102.842679 L57.162293,104.959494" id="Fill-19"></path>
  <path fill="#fff" d="M59.5801274,112.015037 L61.5307006,112.015037 L61.5307006,104.959494 L59.5801274,104.959494 L59.5801274,112.015037 Z M59.5801274,103.866667 L61.5307006,103.866667 L61.5307006,102.269185 L59.5801274,102.269185 L59.5801274,103.866667 Z" id="Fill-20"></path>
  <path fill="#fff" d="M66.24,110.744543 C67.5755414,110.744543 67.9724841,109.611728 67.9724841,108.493593 C67.9724841,107.36179 67.5755414,106.228469 66.24,106.228469 C64.922293,106.228469 64.5233121,107.36179 64.5233121,108.493593 C64.5233121,109.611728 64.922293,110.744543 66.24,110.744543 Z M66.24,104.769173 C68.4815287,104.769173 69.9261146,106.240617 69.9261146,108.493593 C69.9261146,110.731889 68.4815287,112.205864 66.24,112.205864 C64.0168153,112.205864 62.5757962,110.731889 62.5757962,108.493593 C62.5757962,106.240617 64.0168153,104.769173 66.24,104.769173 L66.24,104.769173 Z" id="Fill-21"></path>
  <path fill="#fff" d="M71.186242,104.959494 L73.0415287,104.959494 L73.0415287,105.942481 L73.082293,105.942481 C73.5770701,105.149815 74.428535,104.769173 75.2540127,104.769173 C77.3278981,104.769173 77.849172,105.928309 77.849172,107.675111 L77.849172,112.015037 L75.8985987,112.015037 L75.8985987,108.028926 C75.8985987,106.86979 75.5541401,106.294778 74.6496815,106.294778 C73.5898089,106.294778 73.1368153,106.882951 73.1368153,108.316432 L73.1368153,112.015037 L71.186242,112.015037 L71.186242,104.959494" id="Fill-22"></path>
  <polygon fill="#fff" id="Fill-23" points="0.554394904 122.933185 77.9138854 122.933185 77.9138854 118.016728 0.554394904 118.016728"></polygon>
  <path fill="#fff" d="M79.0787261,102.420531 C79.0298089,102.39421 78.9498089,102.379531 78.8402548,102.379531 L78.673121,102.379531 L78.673121,102.78042 L78.8504459,102.78042 C78.9340127,102.78042 78.9961783,102.773333 79.0374522,102.757136 C79.1143949,102.725247 79.153121,102.669062 79.153121,102.582506 C79.153121,102.502531 79.1271338,102.448877 79.0787261,102.420531 Z M78.8667516,102.245901 C79.0048408,102.245901 79.1057325,102.26058 79.1709554,102.286395 C79.2861146,102.333469 79.3431847,102.426605 79.3431847,102.566309 C79.3431847,102.666025 79.3075159,102.73942 79.2346497,102.785481 C79.1964331,102.810284 79.1424204,102.828 79.0736306,102.839136 C79.1602548,102.852802 79.2249682,102.888741 79.2652229,102.947457 C79.3044586,103.006173 79.3253503,103.062864 79.3253503,103.119049 L79.3253503,103.200037 C79.3253503,103.226358 79.3258599,103.253691 79.3289172,103.282543 C79.3304459,103.311901 79.3329936,103.331136 79.3385987,103.339741 L79.3452229,103.353407 L79.1602548,103.353407 C79.1597452,103.349864 79.1597452,103.346321 79.1587261,103.34379 C79.157707,103.339235 79.1566879,103.334679 79.1556688,103.330123 L79.1510828,103.294691 L79.1510828,103.207123 C79.1510828,103.079568 79.1164331,102.994531 79.0466242,102.953531 C79.0048408,102.930753 78.9319745,102.918099 78.8270064,102.918099 L78.673121,102.918099 L78.673121,103.353407 L78.4764331,103.353407 L78.4764331,102.245901 L78.8667516,102.245901 Z M78.2690446,102.190222 C78.0993631,102.359284 78.0147771,102.563778 78.0147771,102.80421 C78.0147771,103.045654 78.0988535,103.253185 78.2670064,103.422753 C78.4371975,103.592827 78.6435669,103.67837 78.8861146,103.67837 C79.1281529,103.67837 79.3350318,103.592827 79.5031847,103.422753 C79.6733758,103.253185 79.7589809,103.045654 79.7589809,102.80421 C79.7589809,102.563778 79.6733758,102.359284 79.5031847,102.190222 C79.3329936,102.020148 79.1271338,101.934605 78.8861146,101.934605 C78.6440764,101.934605 78.4402548,102.020148 78.2690446,102.190222 Z M79.6056051,103.518926 C79.406879,103.716333 79.166879,103.815543 78.8861146,103.815543 C78.6048408,103.815543 78.3653503,103.716333 78.1676433,103.518926 C77.971465,103.322025 77.8726115,103.082605 77.8726115,102.802691 C77.8726115,102.525815 77.9724841,102.287914 78.1712102,102.091519 C78.3684076,101.894617 78.6058599,101.797432 78.8861146,101.797432 C79.166879,101.797432 79.406879,101.894617 79.6056051,102.091519 C79.8038217,102.286901 79.9021656,102.524802 79.9021656,102.802691 C79.9021656,103.082099 79.8038217,103.321519 79.6056051,103.518926 L79.6056051,103.518926 Z" id="Fill-24"></path>
</svg>
