<svg id="Layer_1" width="37px" height="22px" xmlns="http://www.w3.org/2000/svg" viewBox="0 0 37 22"><title>AU Flag</title><path fill="#fff"  class="st0" d="M0,0h37v1H0V0z M0,21h37v1H0V21z"></path><path fill="#fff"  class="st0" d="M0,0h1v22H0V0z M36,0h1v22h-1V0z"></path><path fill="#fff"  class="st0" d="M18,0h1v13h-1V0z"></path><path fill="#fff"  class="st0" d="M0,12h19v1H0V12z"></path><path fill="#fff"  class="st0" d="M7.4,0.2v4.2H0.1v0.8h8.1v-5C8.2,0.2,7.4,0.2,7.4,0.2z"></path><path fill="#fff"  class="st0" d="M8.3,5.2H0v-1h7.3V0h1.1v5.2H8.3z M0.2,5h7.9V0.3H7.5v4.2H0.2V5z"></path><path fill="#fff"  class="st0" d="M10.3,0.2v5h8.5V4.3h-7.6V0.2H10.3z"></path><path fill="#fff"  class="st0" d="M18.9,5.2h-8.7V0h1.1v4.2h7.6V5.2z M10.5,5h8.2V4.4H11V0.3h-0.6V5H10.5z"></path><path fill="#fff"  class="st0" d="M0.3,7.3v0.8h7.1v4.6h0.8V7.3H0.3z"></path><path fill="#fff"  class="st0" d="M8.3,12.9h-1V8.3H0.2V7.2h8.2L8.3,12.9L8.3,12.9z M7.6,12.6h0.5V7.5H0.4V8h7.1L7.6,12.6L7.6,12.6z"></path><path fill="#fff"  class="st0" d="M10.3,7.3v5.4h0.8V8.1h7.5V7.3H10.3z"></path><path fill="#fff"  class="st0" d="M11.2,12.9h-1V7.2h8.6v1.1h-7.5L11.2,12.9L11.2,12.9z M10.5,12.6H11V8h7.5V7.5h-8.1v5.1H10.5z"></path><path fill="#fff"  class="st0" d="M0.6,1.4L0.1,2.1L4.2,5l0.5-0.7L0.6,1.4z"></path><path fill="#fff"  class="st0" d="M4.2,5.2l-4.3-3l0.6-0.9l0.1,0.1l4.2,2.9L4.2,5.2z M0.3,2.1l3.9,2.7l0.3-0.5L0.6,1.6L0.3,2.1z"></path><path fill="#fff"  class="st0" d="M3.2,0.2L2.7,0.8l4.6,3.5l0.5-0.7L3.2,0.2z"></path><path fill="#fff"  class="st0" d="M7.4,4.5L7.4,4.5L2.6,0.8L3.2,0L8,3.7L7.4,4.5z M2.9,0.8l4.4,3.4l0.3-0.5L3.2,0.3L2.9,0.8z"></path><path fill="#fff"  class="st0" d="M18.2,1.3l-4.2,3L14.4,5l4.2-3L18.2,1.3z"></path><path fill="#fff"  class="st0" d="M14.4,5.2l-0.6-0.9l0.1-0.1l4.3-3.1L18.8,2L14.4,5.2z M14.1,4.3l0.3,0.5l4-2.8l-0.3-0.5L14.1,4.3z"></path><path fill="#fff"  class="st0" d="M15.7,0.1l-5,3.7l0.5,0.7l5-3.7L15.7,0.1z"></path><path fill="#fff"  class="st0" d="M11.1,4.6l-0.6-0.9l5.2-3.8l0.6,0.9L11.1,4.6z M10.8,3.8l0.3,0.5L16,0.7l-0.3-0.5L10.8,3.8z"></path><path fill="#fff"  class="st0" d="M4.1,7.4l-4,2.8l0.5,0.7l4-2.8L4.1,7.4z"></path><path fill="#fff"  class="st0" d="M0.6,11.1L0,10.2l4.2-3l0.6,0.9L4.6,8.2L0.6,11.1z M0.3,10.3l0.3,0.5l3.8-2.7L4,7.6L0.3,10.3z"></path><path fill="#fff"  class="st0" d="M7.4,8L2,12l0.5,0.7l5.4-4L7.4,8z"></path><path fill="#fff"  class="st0" d="M2.4,12.9L1.8,12l5.6-4.2L8,8.7L7.9,8.8L2.4,12.9z M2.1,12.1l0.3,0.5l5.2-3.9L7.3,8.2L2.1,12.1z"></path><path fill="#fff"  class="st0" d="M14.2,7.4l-0.5,0.7l4.6,3.2l0.5-0.7L14.2,7.4z"></path><path fill="#fff"  class="st0" d="M18.3,11.5l-0.1-0.1l-4.7-3.3l0.6-0.9l0.1,0.1l4.7,3.3L18.3,11.5z M13.9,8l4.4,3.1l0.3-0.5l-4.4-3.1L13.9,8z"></path><path fill="#fff"  class="st0" d="M11.1,8l-0.5,0.7l5.2,4l0.5-0.7L11.1,8z"></path><path fill="#fff"  class="st0" d="M15.9,12.8l-5.4-4.1l0.7-0.9l0.1,0.1l5.3,4.1L15.9,12.8z M10.8,8.6l5,3.8l0.3-0.5l-5-3.8L10.8,8.6z"></path><path fill="#fff"  class="st0" d="M10.7,20.1l-1.4-1.4l-1.5,1.4l0.2-2l-2-0.3l1.7-1l-1-1.7l1.9,0.7l0.7-1.9l0.6,1.9l1.9-0.6l-1.1,1.7l1.7,1.1 l-2,0.2L10.7,20.1z"></path><path fill="#fff"  class="st0" d="M24,11.1l-0.7-0.7l-0.7,0.7l0.1-1l-1-0.1l0.8-0.5L22,8.7l1,0.2L23.4,8l0.3,0.9l0.9-0.3l-0.5,0.8l0.8,0.5l-1,0.1 L24,11.1z"></path><path fill="#fff"  class="st0" d="M29.5,5l-0.6-0.6L28.2,5l0.1-0.9L27.4,4l0.8-0.5l-0.5-0.8L28.5,3l0.3-0.9L29.1,3L30,2.7l-0.5,0.8L30.3,4 l-0.9,0.1L29.5,5z"></path><path fill="#fff"  class="st0" d="M29.5,19.7L28.9,19l-0.7,0.7l0.1-1l-1-0.1l0.8-0.5l-0.5-0.8l0.9,0.3l0.3-0.9l0.3,0.9l0.9-0.3l-0.5,0.8l0.8,0.5 l-1,0.1L29.5,19.7z"></path><path fill="#fff"  class="st0" d="M31.6,12.7L31,12.3l-0.6,0.4l0.2-0.6L30,11.7h0.7L31,11l0.2,0.6H32L31.4,12L31.6,12.7z"></path><path fill="#fff"  class="st0" d="M34.4,9.5l-0.6-0.6l-0.7,0.6l0.1-0.9l-0.9-0.1L33,8l-0.5-0.8l0.9,0.3l0.3-0.9L34,7.5l0.9-0.3L34.4,8l0.8,0.5 l-0.9,0.1L34.4,9.5z"></path></svg>
