<svg id="Layer_1" xmlns="http://www.w3.org/2000/svg" viewBox="0 0 37 22" width="37px"><path fill="none" d="M21.2 21h6.7l-6.7-4.4zM1 13.4v6.9l10.6-6.9zM1.7 21h5l8.9-5.9v-1.7h-2.2zM1 3.3v4.8h7.3zM15.6 21v-4.7L8.5 21zM21.2 1v6l9.2-6zM15.1 8.1L4.2 1H1v1.2l9.1 5.9zM15.6 1H6l9.6 6.3zM21.3 8.1h5L36 1.8V1h-3.8zM21.2 13.4v2l8.5 5.6h5L23 13.4zM36 8.1V3l-7.9 5.1z"></path><path fill="none" d="M25 9h-4.8V1h-3.6v8H1V12.4h12.1v-.1h3.5V21h3.6v-8.7h3.1v.1H36V9h-9.2z"></path><path fill="none" d="M36 20.7v-7.3H24.8z"></path><path d="M36 0H0v22h37V0h-1zM21.2 1h9.2l-9.2 6V1zm-5.6 0v6.3L6 1h9.6zM1 1h3.2l10.9 7.1h-5L1 2.2V1zm0 2.3l7.3 4.8H1V3.3zm0 10.1h10.6L1 20.3v-6.9zM15.6 21H8.5l7.1-4.7V21zm0-5.9L6.7 21h-5l11.6-7.6h2.3v1.7zm5.6 5.9v-4.4l6.7 4.4h-6.7zm8.5 0l-8.5-5.6v-2.1H23L34.7 21h-5zm6.3-.3l-11.2-7.3H36v7.3zm0-11.6v3.2H20.2V21h-3.5V12.2H1V9h15.7V1h3.5V9H36v.1zm0-1h-7.9L36 3v5.1zm0-6.3l-9.7 6.4h-5L32.2 1H36v.8z" fill="#fff"></path><path d="M20.2 13.4z" fill="#fff"></path></svg>
