<svg width="37px" enable-background="new 0 0 37 22" version="1.1" viewBox="0 0 37 22" xml:space="preserve" xmlns="http://www.w3.org/2000/svg">
<style type="text/css">
	.st0{fill-rule:evenodd;clip-rule:evenodd;fill:#fff;}
	.st1{fill:#fff;}
</style>
<title>flag</title>
<rect class="st0" x="27.1" width="9.9" height="22"></rect>
<rect class="st0" width="9.9" height="22"></rect>
<path class="st0" d="m18.8 19.1c-0.1-1.4-0.1-2.3-0.2-3.2 0-0.4 0.3-0.3 0.6-0.3 2 0.3 3 0.5 3 0.5-1-2 1.6-2.9 2.9-4.1-1-0.4-0.9-0.2-0.2-2.7-2.2 0.7-2 0.5-2.5-0.6 0 0-0.2 0.2-1.5 1.7-0.2 0.2-0.5 0.1-0.5-0.3 0.7-3.5 0.7-3.7 0.7-3.7-1.4 0.8-1.3 0.9-1.6 0.5-0.8-1.5-1.1-2.2-1.1-2.2s-0.4 0.7-1.1 2.2c-0.2 0.4-0.2 0.4-1.6-0.5 0 0 0 0.1 0.7 3.7 0.1 0.3-0.3 0.5-0.5 0.3-1.4-1.5-1.5-1.7-1.5-1.7-0.5 1.1-0.3 1.3-2.5 0.6 0.7 2.5 0.8 2.4-0.2 2.7 1.4 1.1 4 2.1 2.9 4.1 0 0 1-0.1 3-0.5 0.2 0 0.6-0.1 0.6 0.3 0 0.9-0.1 1.8-0.2 3.2h0.8z"></path>
<path class="st1" d="M0,0h37v1H0V0z M0,21h37v1H0V21z"></path>
</svg>
