<svg id="Layer_1" data-name="Layer 1" xmlns="http://www.w3.org/2000/svg" viewBox="0 0 37 22" width="37px" height="22px"><title>NZ Flag</title><path fill="#fff" d="M27.48,3.15,28.05,5H30L28.46,6.16,29,8,27.48,6.83,26,7.93l.56-1.77L25,5h1.89Zm0,11L28.05,16H30l-1.53,1.14L29,19l-1.54-1.14L26,18.94l.56-1.77L25,16h1.89Zm-4-7L24.05,9H26l-1.53,1.14L25,12l-1.53-1.14L22,12l.57-1.77L21,9h1.89Zm8,0L32.05,9H34l-1.54,1.14L33,12l-1.54-1.14L30,12l.56-1.77L29,9h1.89ZM0,0H37V1H0ZM0,21H37v1H0Z"></path><path fill="#fff" d="M0,0H1V22H0ZM36,0h1V22H36Z"></path><path fill="#fff" d="M0,12H19v1H0Z"></path><path fill="#fff" d="M18.05.05h1v13h-1Z"></path><path fill="#fff" d="M.05,12.05h19v1H.05Z"></path><path fill="#fff" d="M7.45.25v4.2H.15v.8h8.1v-5Z"></path><path fill="#fff" d="M8.35,5.25H.05v-1h7.3V.05h1.1v5.2Zm-8.1-.2h7.9V.35h-.6v4.2H.25Z"></path><path fill="#fff" d="M10.35.25v5h8.5v-.9h-7.6V.25Z"></path><path fill="#fff" d="M19,5.25h-8.7V.05h1.1v4.2H19Zm-8.4-.2h8.2v-.6h-7.7V.35h-.6v4.7Z"></path><path fill="#fff" d="M.35,7.35v.8h7.1v4.6h.8V7.35Z"></path><path fill="#fff" d="M8.35,13h-1V8.35H.25V7.25h8.2L8.35,13Zm-.7-.3h.5V7.55H.45v.5h7.1l.1,4.6Z"></path><path fill="#fff" d="M10.35,7.35v5.4h.8V8.15h7.5v-.8Z"></path><path fill="#fff" d="M11.25,13h-1V7.25h8.6v1.1h-7.5l-.1,4.6Zm-.7-.3h.5V8.05h7.5v-.5h-8.1v5.1Z"></path><path fill="#fff" d="M.65,1.45l-.5.7,4.1,2.9.5-.7Z"></path><path fill="#fff" d="M4.25,5.25,0,2.25l.6-.9.1.1,4.2,2.9ZM.35,2.15l3.9,2.7.3-.5L.65,1.65Z"></path><path fill="#fff" d="M3.25.25l-.5.6,4.6,3.5.5-.7Z"></path><path fill="#fff" d="M7.45,4.55h0L2.65.85l.6-.8,4.8,3.7ZM3,.85l4.4,3.4.3-.5L3.25.35Z"></path><path fill="#fff" d="M18.25,1.35l-4.2,3,.4.7,4.2-3Z"></path><path fill="#fff" d="M14.45,5.25l-.6-.9.1-.1,4.3-3.1.6.9Zm-.3-.9.3.5,4-2.8-.3-.5Z"></path><path fill="#fff" d="M15.75.15l-5,3.7.5.7,5-3.7Z"></path><path fill="#fff" d="M11.15,4.65l-.6-.9L15.75,0l.6.9Zm-.3-.8.3.5,4.9-3.6-.3-.5Z"></path><path fill="#fff" d="M4.15,7.45l-4,2.8.5.7,4-2.8Z"></path><path fill="#fff" d="M.65,11.15l-.6-.9,4.2-3,.6.9-.2.1Zm-.3-.8.3.5,3.8-2.7-.4-.5Z"></path><path fill="#fff" d="M7.45,8.05l-5.4,4,.5.7,5.4-4Z"></path><path fill="#fff" d="M2.45,13l-.6-.9,5.6-4.2.6.9-.1.1Zm-.3-.8.3.5,5.2-3.9-.3-.5Z"></path><path fill="#fff" d="M14.25,7.45l-.5.7,4.6,3.2.5-.7Z"></path><path fill="#fff" d="M18.35,11.55l-.1-.1-4.7-3.3.6-.9.1.1,4.7,3.3ZM14,8.05l4.4,3.1.3-.5-4.4-3.1Z"></path><path fill="#fff" d="M11.15,8.05l-.5.7,5.2,4,.5-.7Z"></path><path fill="#fff" d="M16,12.85l-5.4-4.1.7-.9.1.1,5.3,4.1Zm-5.1-4.2,5,3.8.3-.5-5-3.8Z"></path></svg>
